# xmcd
#
# Track frame offsets:
#	150
#	14114
#	35581
#	68349
#	91878
#	109438
#	129958
#	147330
#	182078
#	205293
#	229940
#	252736
#	276536
#	292655
#
# Disc length: 4130 seconds
#
# Revision: 1
# Processed by: cddbd v1.4PL0 Copyright (c) Steve Scherf et al.
# Submitted via: CDmax 2.0
#
DISCID=d610200e
DTITLE=Jazz Chor Wien - Gospel Heaven
DYEAR=1997
DGENRE=Blues
TTITLE0=Amen
TTITLE1=Soon And Very Soon
TTITLE2=Didn't It Rain
TTITLE3=He's Worthy
TTITLE4=He's Got The Whole World
TTITLE5=Joshua Fit The Battle Of Jericho
TTITLE6=Keep Your Hand On The Plow
TTITLE7=Make It Work
TTITLE8=Cross That River
TTITLE9=I'm On My Way
TTITLE10=Oh Happy Day
TTITLE11=He That Believeth
TTITLE12=Evening Prayer
TTITLE13=Oh When The Saints
EXTD=Soloist: Ines Reiger\nChoir Soloists:\nWalter Authried, Sibylle Kefer, C
EXTD=laudia Knafl, Michael Schroll\nBand: SM\nPiano: Sascha Peres\nGuitar: Cl
EXTD=emens Wabra\nDrums: Michael kahlig\nBass: Pablo Martin\nArranged and con
EXTD=ducted by Stefan Foidl\ne-mail: info@jazzchorwien.at\nweb: http://www.ja
EXTD=zzchorwien.at
EXTT0=
EXTT1=
EXTT2=
EXTT3=
EXTT4=
EXTT5=
EXTT6=
EXTT7=
EXTT8=
EXTT9=
EXTT10=
EXTT11=
EXTT12=
EXTT13=
PLAYORDER=
